<svg width="211" height="30" viewBox="0 0 211 30" fill="none" xmlns="http://www.w3.org/2000/svg">
<path d="M7.49688 29L0.576875 1.52H8.09688L11.4569 15.96C11.5102 16.2 11.5769 16.5467 11.6569 17C11.7369 17.4533 11.8169 17.9333 11.8969 18.44C12.0035 18.9467 12.0969 19.4133 12.1769 19.84H12.3369C12.3902 19.5733 12.4435 19.2667 12.4969 18.92C12.5502 18.5467 12.6035 18.1867 12.6569 17.84C12.7369 17.4667 12.8035 17.12 12.8569 16.8C12.9369 16.48 12.9902 16.2 13.0169 15.96L16.1769 1.52H23.9769L27.2169 15.96C27.2969 16.2267 27.3769 16.5867 27.4569 17.04C27.5369 17.4933 27.6169 17.9733 27.6969 18.48C27.8035 18.9867 27.8969 19.44 27.9769 19.84H28.1369C28.1902 19.5467 28.2435 19.24 28.2969 18.92C28.3769 18.5733 28.4435 18.2267 28.4969 17.88C28.5769 17.5067 28.6435 17.16 28.6969 16.84C28.7769 16.52 28.8435 16.2267 28.8969 15.96L32.1369 1.52H39.1769L32.2569 29H24.2569L20.7369 13.8C20.6835 13.4267 20.6035 13 20.4969 12.52C20.3902 12.04 20.2835 11.56 20.1769 11.08C20.0969 10.6 20.0302 10.1733 19.9769 9.8H19.8169C19.7635 10.1733 19.6969 10.6 19.6169 11.08C19.5369 11.56 19.4435 12.04 19.3369 12.52C19.2569 13 19.1769 13.4267 19.0969 13.8L15.6169 29H7.49688ZM45.61 29.48C44.73 29.48 43.8633 29.3867 43.01 29.2C42.1833 29.04 41.4233 28.7467 40.73 28.32C40.0633 27.8667 39.53 27.2533 39.13 26.48C38.73 25.7067 38.53 24.7333 38.53 23.56C38.53 22.04 38.85 20.8 39.49 19.84C40.13 18.88 41.05 18.1333 42.25 17.6C43.4767 17.04 44.9433 16.6533 46.65 16.44C48.3833 16.2267 50.3167 16.12 52.45 16.12V14.8C52.45 14.1867 52.33 13.68 52.09 13.28C51.85 12.8533 51.49 12.5333 51.01 12.32C50.5567 12.08 49.9433 11.96 49.17 11.96C48.4767 11.96 47.8633 12.04 47.33 12.2C46.8233 12.36 46.4367 12.6 46.17 12.92C45.9033 13.2133 45.77 13.5733 45.77 14V14.36H39.37C39.3433 14.2267 39.33 14.12 39.33 14.04C39.33 13.9333 39.33 13.8 39.33 13.64C39.33 12.3867 39.7167 11.2933 40.49 10.36C41.29 9.42667 42.4233 8.70666 43.89 8.2C45.3567 7.69333 47.13 7.44 49.21 7.44C51.1567 7.44 52.85 7.68 54.29 8.16C55.7567 8.64 56.9033 9.37333 57.73 10.36C58.5833 11.3467 59.01 12.64 59.01 14.24V23.24C59.01 23.6933 59.13 24.0533 59.37 24.32C59.6367 24.5867 59.9567 24.72 60.33 24.72H61.69V28.76C61.3967 28.8933 60.93 29.04 60.29 29.2C59.6767 29.3867 58.93 29.48 58.05 29.48C57.1433 29.48 56.3433 29.36 55.65 29.12C54.9833 28.9067 54.4233 28.6 53.97 28.2C53.5433 27.7733 53.25 27.28 53.09 26.72H52.81C52.3033 27.2533 51.7033 27.7333 51.01 28.16C50.3433 28.5867 49.5567 28.9067 48.65 29.12C47.77 29.36 46.7567 29.48 45.61 29.48ZM48.05 24.96C48.69 24.96 49.2767 24.8667 49.81 24.68C50.3433 24.4933 50.7967 24.24 51.17 23.92C51.57 23.5733 51.8767 23.16 52.09 22.68C52.33 22.2 52.45 21.68 52.45 21.12V19.72C50.93 19.72 49.6233 19.8267 48.53 20.04C47.4367 20.2533 46.5967 20.5867 46.01 21.04C45.4233 21.4933 45.13 22.0667 45.13 22.76C45.13 23.2667 45.25 23.6933 45.49 24.04C45.7567 24.36 46.1033 24.6 46.53 24.76C46.9567 24.8933 47.4633 24.96 48.05 24.96ZM71.7784 29.48C70.4184 29.48 69.2584 29.28 68.2984 28.88C67.3651 28.4533 66.6584 27.8267 66.1784 27C65.7251 26.1733 65.4984 25.1733 65.4984 24V12.68H62.7384V7.92H65.6984L67.0584 1.76H72.0184V7.92H76.1384V12.68H72.0184V22.4C72.0184 23.1467 72.1651 23.72 72.4584 24.12C72.7518 24.52 73.2851 24.72 74.0584 24.72H76.1384V28.8C75.7918 28.9067 75.3518 29.0133 74.8184 29.12C74.3118 29.2533 73.7918 29.3467 73.2584 29.4C72.7251 29.4533 72.2318 29.48 71.7784 29.48ZM89.7291 29.48C87.4091 29.48 85.4357 29.08 83.8091 28.28C82.1824 27.48 80.9291 26.2667 80.0491 24.64C79.1957 22.9867 78.7691 20.92 78.7691 18.44C78.7691 15.96 79.2091 13.9067 80.0891 12.28C80.9691 10.6267 82.2224 9.4 83.8491 8.6C85.4757 7.8 87.4357 7.4 89.7291 7.4C91.2224 7.4 92.5957 7.57333 93.8491 7.92C95.1291 8.26667 96.2357 8.8 97.1691 9.52C98.1291 10.24 98.8624 11.1467 99.3691 12.24C99.8757 13.3333 100.129 14.64 100.129 16.16H93.6891C93.6891 15.2533 93.5291 14.5067 93.2091 13.92C92.9157 13.3333 92.4757 12.8933 91.8891 12.6C91.3024 12.3067 90.5691 12.16 89.6891 12.16C88.6757 12.16 87.8491 12.3733 87.2091 12.8C86.5957 13.2267 86.1424 13.8533 85.8491 14.68C85.5557 15.5067 85.4091 16.5333 85.4091 17.76V19.2C85.4091 20.4 85.5557 21.4133 85.8491 22.24C86.1424 23.0667 86.6224 23.6933 87.2891 24.12C87.9557 24.52 88.8091 24.72 89.8491 24.72C90.7557 24.72 91.5024 24.5867 92.0891 24.32C92.7024 24.0267 93.1691 23.5867 93.4891 23C93.8091 22.3867 93.9691 21.6267 93.9691 20.72H100.129C100.129 22.1867 99.8757 23.48 99.3691 24.6C98.8624 25.6933 98.1424 26.6 97.2091 27.32C96.2757 28.04 95.1691 28.5867 93.8891 28.96C92.6091 29.3067 91.2224 29.48 89.7291 29.48ZM104.261 29V0.0399985H110.821V10.2H111.101C111.555 9.64 112.101 9.16 112.741 8.76C113.408 8.33333 114.141 8.01333 114.941 7.8C115.741 7.56 116.568 7.44 117.421 7.44C118.941 7.44 120.221 7.72 121.261 8.28C122.328 8.84 123.141 9.68 123.701 10.8C124.261 11.92 124.541 13.3467 124.541 15.08V29H117.981V16C117.981 15.4133 117.901 14.92 117.741 14.52C117.608 14.0933 117.408 13.7333 117.141 13.44C116.875 13.1467 116.541 12.9333 116.141 12.8C115.741 12.6667 115.288 12.6 114.781 12.6C114.008 12.6 113.328 12.7867 112.741 13.16C112.155 13.5067 111.688 13.9867 111.341 14.6C110.995 15.1867 110.821 15.88 110.821 16.68V29H104.261ZM129.418 29V0.0399985H135.978V29H129.418ZM140.941 5.08V0.0399985H147.501V5.08H140.941ZM140.941 29V7.92H147.501V29H140.941ZM161.504 29.48C160.118 29.48 158.811 29.3333 157.584 29.04C156.384 28.7467 155.318 28.32 154.384 27.76C153.478 27.2 152.758 26.5067 152.224 25.68C151.718 24.8533 151.464 23.8933 151.464 22.8C151.464 22.6933 151.464 22.6 151.464 22.52C151.464 22.4133 151.478 22.32 151.504 22.24H157.704C157.704 22.2933 157.704 22.36 157.704 22.44C157.704 22.4933 157.704 22.5467 157.704 22.6C157.731 23.1867 157.918 23.68 158.264 24.08C158.638 24.4533 159.118 24.7333 159.704 24.92C160.291 25.08 160.931 25.16 161.624 25.16C162.131 25.16 162.664 25.1067 163.224 25C163.811 24.8933 164.304 24.7067 164.704 24.44C165.104 24.1733 165.304 23.7867 165.304 23.28C165.304 22.72 165.051 22.2933 164.544 22C164.064 21.7067 163.411 21.4667 162.584 21.28C161.784 21.0667 160.918 20.8667 159.984 20.68C159.051 20.4667 158.104 20.2267 157.144 19.96C156.211 19.6933 155.344 19.3333 154.544 18.88C153.771 18.4 153.144 17.7867 152.664 17.04C152.184 16.2933 151.944 15.3467 151.944 14.2C151.944 12.9733 152.198 11.9333 152.704 11.08C153.238 10.2 153.958 9.49333 154.864 8.96C155.771 8.42667 156.811 8.04 157.984 7.8C159.184 7.56 160.451 7.44 161.784 7.44C163.011 7.44 164.171 7.56 165.264 7.8C166.384 8.04 167.384 8.41333 168.264 8.92C169.171 9.4 169.878 10.0267 170.384 10.8C170.891 11.5467 171.144 12.4267 171.144 13.44C171.144 13.5733 171.131 13.72 171.104 13.88C171.104 14.0133 171.104 14.1067 171.104 14.16H164.944V13.84C164.944 13.3867 164.798 13.0133 164.504 12.72C164.211 12.4267 163.811 12.2 163.304 12.04C162.798 11.8533 162.238 11.76 161.624 11.76C161.224 11.76 160.824 11.8 160.424 11.88C160.051 11.9333 159.704 12.0267 159.384 12.16C159.064 12.2667 158.798 12.4267 158.584 12.64C158.398 12.8533 158.304 13.12 158.304 13.44C158.304 13.84 158.478 14.1733 158.824 14.44C159.171 14.68 159.638 14.88 160.224 15.04C160.838 15.2 161.504 15.3733 162.224 15.56C163.211 15.7733 164.251 16 165.344 16.24C166.438 16.4533 167.464 16.7733 168.424 17.2C169.411 17.6 170.198 18.2133 170.784 19.04C171.398 19.84 171.704 20.9467 171.704 22.36C171.704 23.6933 171.438 24.8267 170.904 25.76C170.371 26.6667 169.638 27.4 168.704 27.96C167.771 28.4933 166.691 28.88 165.464 29.12C164.238 29.36 162.918 29.48 161.504 29.48ZM183.028 29.48C181.668 29.48 180.508 29.28 179.548 28.88C178.615 28.4533 177.908 27.8267 177.428 27C176.975 26.1733 176.748 25.1733 176.748 24V12.68H173.988V7.92H176.948L178.308 1.76H183.268V7.92H187.388V12.68H183.268V22.4C183.268 23.1467 183.415 23.72 183.708 24.12C184.002 24.52 184.535 24.72 185.308 24.72H187.388V28.8C187.042 28.9067 186.602 29.0133 186.068 29.12C185.562 29.2533 185.042 29.3467 184.508 29.4C183.975 29.4533 183.482 29.48 183.028 29.48ZM200.059 29.48C198.672 29.48 197.366 29.3333 196.139 29.04C194.939 28.7467 193.872 28.32 192.939 27.76C192.032 27.2 191.312 26.5067 190.779 25.68C190.272 24.8533 190.019 23.8933 190.019 22.8C190.019 22.6933 190.019 22.6 190.019 22.52C190.019 22.4133 190.032 22.32 190.059 22.24H196.259C196.259 22.2933 196.259 22.36 196.259 22.44C196.259 22.4933 196.259 22.5467 196.259 22.6C196.286 23.1867 196.472 23.68 196.819 24.08C197.192 24.4533 197.672 24.7333 198.259 24.92C198.846 25.08 199.486 25.16 200.179 25.16C200.686 25.16 201.219 25.1067 201.779 25C202.366 24.8933 202.859 24.7067 203.259 24.44C203.659 24.1733 203.859 23.7867 203.859 23.28C203.859 22.72 203.606 22.2933 203.099 22C202.619 21.7067 201.966 21.4667 201.139 21.28C200.339 21.0667 199.472 20.8667 198.539 20.68C197.606 20.4667 196.659 20.2267 195.699 19.96C194.766 19.6933 193.899 19.3333 193.099 18.88C192.326 18.4 191.699 17.7867 191.219 17.04C190.739 16.2933 190.499 15.3467 190.499 14.2C190.499 12.9733 190.752 11.9333 191.259 11.08C191.792 10.2 192.512 9.49333 193.419 8.96C194.326 8.42667 195.366 8.04 196.539 7.8C197.739 7.56 199.006 7.44 200.339 7.44C201.566 7.44 202.726 7.56 203.819 7.8C204.939 8.04 205.939 8.41333 206.819 8.92C207.726 9.4 208.432 10.0267 208.939 10.8C209.446 11.5467 209.699 12.4267 209.699 13.44C209.699 13.5733 209.686 13.72 209.659 13.88C209.659 14.0133 209.659 14.1067 209.659 14.16H203.499V13.84C203.499 13.3867 203.352 13.0133 203.059 12.72C202.766 12.4267 202.366 12.2 201.859 12.04C201.352 11.8533 200.792 11.76 200.179 11.76C199.779 11.76 199.379 11.8 198.979 11.88C198.606 11.9333 198.259 12.0267 197.939 12.16C197.619 12.2667 197.352 12.4267 197.139 12.64C196.952 12.8533 196.859 13.12 196.859 13.44C196.859 13.84 197.032 14.1733 197.379 14.44C197.726 14.68 198.192 14.88 198.779 15.04C199.392 15.2 200.059 15.3733 200.779 15.56C201.766 15.7733 202.806 16 203.899 16.24C204.992 16.4533 206.019 16.7733 206.979 17.2C207.966 17.6 208.752 18.2133 209.339 19.04C209.952 19.84 210.259 20.9467 210.259 22.36C210.259 23.6933 209.992 24.8267 209.459 25.76C208.926 26.6667 208.192 27.4 207.259 27.96C206.326 28.4933 205.246 28.88 204.019 29.12C202.792 29.36 201.472 29.48 200.059 29.48Z" fill="#F33F3F"/>
</svg>
